<svg width="128" height="36" viewBox="0 0 128 36" fill="none" xmlns="http://www.w3.org/2000/svg">
<path fill-rule="evenodd" clip-rule="evenodd" d="M26.3056 35.6446L15.1842 22.2056L26.0638 8.76665H16.3459L8.27088 19.5564V0H0V35.6446H8.26846V24.2287L16.3459 35.6446H26.3068H26.3056ZM35.1011 8.42947C32.9912 8.39738 30.9171 8.97456 29.1294 10.0913C27.3198 11.2586 25.8782 12.9117 24.971 14.86C23.9064 17.1604 23.3854 19.6733 23.4479 22.2056C23.3904 24.7298 23.9113 27.2337 24.971 29.5272C25.873 31.4852 27.3152 33.1474 29.1294 34.32C30.9171 35.4367 32.9912 36.0139 35.1011 35.9818C36.9718 36.0334 38.818 35.5486 40.42 34.5849C41.8798 33.6801 43.0271 32.3523 43.708 30.7796V35.6446H51.9281V8.76183H43.708V13.6268C43.0268 12.0543 41.8796 10.7266 40.42 9.82154C38.8174 8.85981 36.9713 8.37665 35.1011 8.42947ZM37.7605 15.6547C38.5582 15.6288 39.3522 15.7722 40.09 16.0753C40.8278 16.3784 41.4924 16.8343 42.0398 17.4129C43.2055 18.7306 43.8046 20.4519 43.708 22.2056C43.7964 23.9509 43.1979 25.6617 42.0398 26.9743C41.4962 27.5592 40.8328 28.021 40.0945 28.3284C39.3562 28.6359 38.5603 28.7819 37.7605 28.7565C36.9642 28.7894 36.1701 28.6515 35.4319 28.3524C34.6936 28.0532 34.0284 27.5997 33.4812 27.0225C32.3365 25.6858 31.7559 23.9595 31.8614 22.2056C31.7561 20.4518 32.3366 18.7255 33.4812 17.3888C34.0284 16.8116 34.6936 16.358 35.4319 16.0589C36.1701 15.7597 36.9642 15.6219 37.7605 15.6547ZM54.8052 0V35.6446H63.0736V0H54.8052ZM66.618 0V35.6446H74.8864V0H66.618ZM104.131 21.4831C104.178 19.1054 103.603 16.7564 102.462 14.6673C101.37 12.7121 99.7329 11.1143 97.748 10.0672C95.5522 8.98579 93.135 8.42525 90.6855 8.42942C88.2361 8.4336 85.8208 9.00239 83.6287 10.0913C81.5894 11.1752 79.9159 12.8339 78.8176 14.86C77.6268 17.123 77.036 19.6514 77.101 22.2056C77.0416 24.7545 77.6411 27.2757 78.8417 29.5272C79.9436 31.5568 81.6156 33.2223 83.6529 34.32C85.6862 35.3435 87.9208 35.9086 90.198 35.9752C92.4752 36.0418 94.7392 35.6082 96.8293 34.7053C98.6008 33.9056 100.158 32.7009 101.375 31.189C102.559 29.7129 103.357 27.9666 103.695 26.1073H94.9435C94.6976 27.0524 94.1345 27.8852 93.3478 28.4675C92.4632 29.1023 91.391 29.4244 90.3015 29.3827C88.9797 29.4313 87.6926 28.9548 86.7234 28.0581C85.6651 26.8567 85.1111 25.2959 85.1761 23.6989H103.889C104.042 22.9699 104.123 22.2278 104.131 21.4831ZM95.7667 20.2307H85.2256C85.2451 18.7434 85.8533 17.3239 86.918 16.2809C87.9558 15.3674 89.3055 14.8847 90.6896 14.9322C92.0317 14.8927 93.3381 15.3667 94.3403 16.2568C94.857 16.7738 95.2528 17.398 95.4994 18.0849C95.746 18.7719 95.8372 19.5046 95.7667 20.2307ZM115.566 8.42947C112.789 8.25503 110.037 9.04674 107.781 10.6693C106.895 11.3629 106.185 12.2535 105.706 13.2697C105.228 14.2859 104.994 15.3997 105.025 16.5218C104.935 18.1124 105.434 19.6808 106.427 20.9292C107.322 21.9775 108.471 22.7815 109.764 23.2653C111.372 23.8358 113.021 24.2866 114.696 24.6141C116.174 24.906 117.623 25.3333 119.022 25.8905C119.426 26.0432 119.772 26.3182 120.01 26.6768C120.249 27.0355 120.368 27.4596 120.352 27.8895C120.364 28.21 120.306 28.5293 120.18 28.8248C120.055 29.1203 119.866 29.3847 119.627 29.5995C119.024 30.0727 118.265 30.3046 117.499 30.2498C116.326 30.3016 115.166 29.9811 114.187 29.3346C113.761 29.0276 113.409 28.6311 113.154 28.1733C112.899 27.7155 112.748 27.2075 112.712 26.6853H104.734C104.903 28.0435 105.345 29.3538 106.035 30.5374C106.724 31.7211 107.647 32.7537 108.747 33.5734C111.329 35.2928 114.398 36.1374 117.499 35.9818C119.418 36.0265 121.326 35.6824 123.107 34.9703C124.556 34.398 125.813 33.4295 126.734 32.1765C127.575 30.9779 128.016 29.5449 127.991 28.0822C128.077 26.4473 127.561 24.8373 126.54 23.5543C125.623 22.4654 124.441 21.6281 123.107 21.1218C121.448 20.5252 119.752 20.0345 118.03 19.6527C116.596 19.3802 115.194 18.9605 113.847 18.4003C113.459 18.2608 113.123 18.0057 112.885 17.6697C112.648 17.3337 112.519 16.9329 112.518 16.5218C112.499 16.2004 112.555 15.8792 112.681 15.5827C112.806 15.2862 112.999 15.0225 113.243 14.8118C113.86 14.3695 114.612 14.1565 115.37 14.2097C116.441 14.1705 117.491 14.5025 118.343 15.149C119.146 15.7966 119.687 16.7119 119.866 17.726H127.603C127.178 15.0904 125.813 12.6959 123.759 10.9824C121.421 9.18528 118.515 8.27983 115.566 8.42947Z" fill="#222222"/>
</svg>
